<mxfile host="app.diagrams.net" modified="2023-06-22T09:34:37.526Z" agent="Mozilla/5.0 (Windows NT 10.0; Win64; x64; rv:109.0) Gecko/20100101 Firefox/114.0" version="21.5.0" etag="4oR7ACSPtf8mAkswT0vd" type="github">
  <diagram name="Page-1" id="ezVpJTp6G80hFA388X_o">
    <mxGraphModel>
      <root>
        <mxCell id="0" />
        <mxCell id="1" parent="0" />
      </root>
    </mxGraphModel>
  </diagram>
</mxfile>
